<svg xmlns="http://www.w3.org/2000/svg" xmlns:xlink="http://www.w3.org/1999/xlink" width="560" height="164" viewBox="0 0 560 164">
    <defs>
        <path id="a" d="M.464.665H59.85v46.167H.464V.665z"/>
        <path id="c" d="M0 164h560V1H0z"/>
    </defs>
    <g fill="none" fill-rule="evenodd">
        <path fill="#000" d="M17.184 34.16h9.871c3.94 0 6.764-.924 8.47-2.77 1.707-1.848 2.56-4.477 2.56-7.89 0-3.412-.853-6.042-2.56-7.89-1.706-1.845-4.53-2.77-8.47-2.77h-9.871v21.32zM0 2h33.454c3.696 0 6.946.382 9.75 1.144 2.803.764 5.149 1.988 7.038 3.674 1.889 1.686 3.32 3.894 4.296 6.625C55.513 16.173 56 19.525 56 23.5c0 7.549-1.889 13.018-5.667 16.411C46.555 43.305 41.05 45 33.819 45H0V2zM62 2h46v10.479H79.092v5.782h26.847v10.478H79.092v5.782H108V45H62zM125.907 12.84H110V2h49v10.84h-15.907V45h-17.186zM180.345 20.91h12.3c1.723 0 2.952-.33 3.69-.993.739-.663 1.108-1.677 1.108-3.042 0-1.646-.483-2.73-1.446-3.252-.964-.52-2.163-.783-3.598-.783h-12.054v8.07zM163 2h36.534c2.5 0 4.56.12 6.18.361s3.024.643 4.214 1.205c1.64.804 3.044 2.148 4.212 4.035 1.17 1.888 1.753 4.015 1.753 6.384 0 1.003-.114 2.017-.337 3.04a9.454 9.454 0 0 1-1.138 2.862 8.797 8.797 0 0 1-2.092 2.348c-.86.683-1.927 1.205-3.198 1.566v.12c1.312.362 2.429 1.085 3.351 2.169.923 1.084 1.466 2.57 1.63 4.456l.74 9.395c.08.964.316 1.877.707 2.74.388.864.87 1.636 1.444 2.319h-18.943a4.179 4.179 0 0 1-.368-1.114 17.032 17.032 0 0 1-.215-1.566 43.338 43.338 0 0 1-.155-2.258c-.041-.884-.103-1.948-.185-3.192-.082-1.605-.45-2.86-1.107-3.764-.656-.904-1.783-1.355-3.382-1.355h-12.3V45H163V2z"/>
        <g transform="translate(219)">
            <mask id="b" fill="#fff">
                <use xlink:href="#a"/>
            </mask>
            <path fill="#000" d="M18.718 23.748c0 2.176.263 4.04.79 5.59.528 1.551 1.288 2.82 2.282 3.807.994.988 2.2 1.703 3.62 2.145 1.42.444 3.002.665 4.747.665 1.744 0 3.326-.22 4.746-.665 1.42-.442 2.625-1.157 3.62-2.145.993-.986 1.754-2.256 2.282-3.807.526-1.55.79-3.414.79-5.59 0-2.175-.264-4.038-.79-5.59-.528-1.55-1.29-2.818-2.282-3.806-.995-.987-2.2-1.702-3.62-2.146-1.42-.442-3.002-.664-4.746-.664-1.745 0-3.327.222-4.746.664-1.42.444-2.627 1.159-3.62 2.146-.995.988-1.755 2.257-2.282 3.807-.528 1.55-.791 3.414-.791 5.59m-18.254 0c0-3.707.496-6.86 1.491-9.458.994-2.598 2.291-4.753 3.893-6.466a17.728 17.728 0 0 1 5.538-4.018 29.911 29.911 0 0 1 6.45-2.145c2.21-.463 4.38-.746 6.51-.846 2.13-.1 4.066-.151 5.81-.151 1.745 0 3.682.05 5.811.15 2.13.101 4.3.384 6.51.847 2.21.463 4.36 1.178 6.45 2.145a17.724 17.724 0 0 1 5.537 4.018c1.602 1.713 2.9 3.868 3.894 6.466.994 2.599 1.491 5.751 1.491 9.457 0 3.707-.497 6.859-1.49 9.457-.995 2.599-2.293 4.755-3.895 6.466a17.711 17.711 0 0 1-5.537 4.019 29.957 29.957 0 0 1-6.45 2.145c-2.21.462-4.38.745-6.51.846-2.13.1-4.066.151-5.81.151-1.745 0-3.681-.051-5.811-.151s-4.3-.384-6.51-.846a29.911 29.911 0 0 1-6.45-2.145 17.714 17.714 0 0 1-5.538-4.019c-1.602-1.711-2.9-3.857-3.893-6.435-.995-2.578-1.49-5.741-1.49-9.488" mask="url(#b)"/>
        </g>
        <mask id="d" fill="#fff">
            <use xlink:href="#c"/>
        </mask>
        <path fill="#000" d="M285 45h17V2h-17zM321.907 12.84H306V2h49v10.84h-15.907V45h-17.186zM17.184 94.16h9.871c3.94 0 6.764-.924 8.47-2.77 1.707-1.848 2.56-4.477 2.56-7.89 0-3.412-.853-6.042-2.56-7.89-1.706-1.845-4.53-2.77-8.47-2.77h-9.871v21.32zM0 62h33.454c3.696 0 6.946.382 9.75 1.144 2.803.764 5.149 1.988 7.038 3.674 1.889 1.686 3.32 3.894 4.296 6.625C55.513 76.173 56 79.525 56 83.5c0 7.549-1.889 13.018-5.667 16.411C46.555 103.305 41.05 105 33.819 105H0V62zM62 62h46v10.479H79.092v5.782h26.847v10.478H79.092v5.782H108V105H62zM123.56 86.822c-2.124-.328-3.942-.872-5.452-1.63-1.512-.759-2.748-1.67-3.708-2.738a10.136 10.136 0 0 1-2.113-3.63c-.45-1.353-.673-2.808-.673-4.367 0-2.83.652-5.177 1.96-7.044 1.307-1.866 3.093-3.353 5.36-4.46 2.268-1.107 4.943-1.876 8.027-2.307 3.083-.43 6.403-.646 9.955-.646 4.861 0 9.038.318 12.53.954 3.492.636 6.362 1.559 8.609 2.768 2.245 1.21 3.93 2.707 5.054 4.49 1.123 1.785 1.767 3.846 1.93 6.183h-20.096c0-.901-.235-1.63-.704-2.184-.47-.553-1.114-.993-1.93-1.322a10.805 10.805 0 0 0-2.573-.708 18.645 18.645 0 0 0-2.82-.215c-2.572 0-4.37.287-5.391.861-1.021.575-1.531 1.333-1.531 2.276 0 .616.163 1.118.49 1.508.327.39.92.646 1.777.769l20.646 3.075c4.37.657 7.813 2.021 10.325 4.091 2.511 2.072 3.768 4.974 3.768 8.705 0 5.374-2.258 9.342-6.77 11.904-4.514 2.563-11.632 3.845-21.352 3.845-2.206 0-4.433-.062-6.68-.185a49.337 49.337 0 0 1-6.462-.769c-2.064-.39-3.983-.922-5.76-1.599-1.776-.677-3.33-1.558-4.657-2.645a11.933 11.933 0 0 1-3.155-3.968c-.776-1.559-1.164-3.424-1.164-5.598h20.832c.04 1.436.653 2.482 1.838 3.137 1.265.615 3.226.923 5.882.923 2.696 0 4.512-.328 5.453-.984.94-.657 1.408-1.517 1.408-2.584 0-.656-.224-1.261-.674-1.815-.45-.554-1.266-.932-2.45-1.138l-19.728-2.953zM173 105h17V62h-17zM229.3 80.424h24.456v25.038h-7.38l-1.951-3.999a19.389 19.389 0 0 1-3.599 2.553c-1.301.719-2.744 1.292-4.33 1.723-1.585.43-3.365.747-5.336.953-1.973.205-4.2.308-6.678.308-1.993 0-4.087-.103-6.282-.308a34.675 34.675 0 0 1-6.465-1.23 28.901 28.901 0 0 1-6.038-2.522 17.499 17.499 0 0 1-5-4.183c-1.424-1.723-2.562-3.815-3.416-6.275-.854-2.461-1.281-5.393-1.281-8.797 0-3.2.396-6.008 1.19-8.428.792-2.42 1.88-4.512 3.262-6.275a18.785 18.785 0 0 1 4.818-4.368 26.005 26.005 0 0 1 5.916-2.738 36.68 36.68 0 0 1 6.556-1.445 53.05 53.05 0 0 1 6.679-.431c4.797 0 8.974.338 12.533 1.015 3.557.677 6.535 1.692 8.935 3.045 2.398 1.354 4.269 3.076 5.61 5.168 1.342 2.091 2.175 4.552 2.501 7.382h-19.394c-.244-1.148-.662-2.08-1.25-2.8a6.49 6.49 0 0 0-2.105-1.69 8.788 8.788 0 0 0-2.683-.831 21.968 21.968 0 0 0-3.172-.216c-1.748 0-3.334.227-4.757.677-1.423.452-2.632 1.18-3.628 2.184-.997 1.006-1.76 2.297-2.288 3.876-.528 1.58-.792 3.475-.792 5.69 0 4.101 1.057 7.198 3.171 9.29 2.114 2.09 5.326 3.137 9.636 3.137 2.806 0 4.96-.502 6.465-1.507 1.504-1.004 2.561-2.348 3.172-4.03H229.3v-9.966zM262 62h19.737l17.53 23.849h.183V62H316v43h-18.94l-18.388-24.09h-.123V105H262zM17.184 153.16h9.871c3.94 0 6.764-.924 8.47-2.77 1.707-1.848 2.56-4.477 2.56-7.89 0-3.412-.853-6.042-2.56-7.89-1.706-1.845-4.53-2.77-8.47-2.77h-9.871v21.32zM0 121h33.454c3.696 0 6.946.382 9.75 1.144 2.803.764 5.149 1.988 7.038 3.674 1.889 1.686 3.32 3.894 4.296 6.625.975 2.73 1.462 6.082 1.462 10.057 0 7.549-1.889 13.018-5.667 16.411C46.555 162.305 41.05 164 33.819 164H0v-43zM62 121h46v10.479H79.092v5.782h26.847v10.478H79.092v5.782H108V164H62zM131.132 140.151h11.056c2.186 0 3.726-.35 4.616-1.054.89-.701 1.336-1.836 1.336-3.402 0-1.646-.445-2.82-1.336-3.523-.89-.702-2.43-1.054-4.616-1.054h-11.056v9.033zM114 121h35.356c3.037 0 5.608.331 7.714.994 2.106.662 3.827 1.637 5.164 2.92 1.336 1.286 2.298 2.852 2.885 4.698.587 1.847.881 3.975.881 6.384 0 2.047-.294 3.965-.88 5.751a11.902 11.902 0 0 1-2.825 4.668c-1.297 1.324-2.997 2.36-5.103 3.101-2.105.744-4.677 1.114-7.715 1.114h-18.345V164H114v-43zM191.061 134.008h-.121l-5.107 14.575h10.335l-5.107-14.575zM180.482 121h21.036L220 164h-18.238l-1.824-4.938h-17.875L180.24 164H162l18.482-43zM240.345 139.91h12.3c1.723 0 2.952-.33 3.69-.993.739-.663 1.108-1.677 1.108-3.042 0-1.646-.483-2.73-1.446-3.252-.964-.52-2.163-.783-3.598-.783h-12.054v8.07zM223 121h36.534c2.5 0 4.56.12 6.18.361s3.024.643 4.214 1.205c1.64.804 3.044 2.148 4.212 4.035 1.17 1.888 1.753 4.015 1.753 6.384 0 1.003-.114 2.017-.337 3.04a9.454 9.454 0 0 1-1.138 2.862 8.797 8.797 0 0 1-2.092 2.348c-.86.683-1.927 1.205-3.198 1.566v.12c1.312.362 2.429 1.085 3.351 2.169.923 1.084 1.466 2.57 1.63 4.456l.74 9.395c.08.964.316 1.877.707 2.74.388.864.87 1.636 1.444 2.319h-18.943a4.179 4.179 0 0 1-.368-1.114 17.032 17.032 0 0 1-.215-1.566 43.339 43.339 0 0 1-.155-2.258c-.041-.884-.103-1.948-.185-3.192-.082-1.605-.45-2.86-1.107-3.764-.656-.904-1.783-1.355-3.382-1.355h-12.3V164H223v-43zM292.907 131.84H277V121h49v10.84h-15.907V164h-17.186zM330 121h24.283l7.156 24.993h.122L368.717 121H393v43h-15.657v-30.714h-.124L368.045 164h-13.09l-9.174-30.714h-.122V164H330zM401 121h46v10.479h-28.908v5.782h26.847v10.478h-26.847v5.782H447V164h-46zM453 121h19.737l17.53 23.849h.183V121H507v43h-18.94l-18.388-24.09h-.123V164H453zM526.907 131.84H511V121h49v10.84h-15.907V164h-17.186z" mask="url(#d)"/>
    </g>
</svg>
